<svg xmlns="http://www.w3.org/2000/svg" xmlns:xlink="http://www.w3.org/1999/xlink" style="display:none">
  <!-- React Icon -->
  <symbol id="react" viewBox="0 0 569 512">
    <g fill="none" fill-rule="evenodd">
      <g transform="translate(-227, -256)" fill="#58C4DC" fill-rule="nonzero">
        <g transform="translate(227, 256)">
          <path d="M285.5,201 C255.400481,201 231,225.400481 231,255.5 C231,285.599519 255.400481,310 285.5,310 C315.599519,310 340,285.599519 340,255.5 C340,225.400481 315.599519,201 285.5,201" id="Path"></path>
          <path d="M568.959856,255.99437 C568.959856,213.207656 529.337802,175.68144 466.251623,150.985214 C467.094645,145.423543 467.85738,139.922107 468.399323,134.521063 C474.621631,73.0415145 459.808523,28.6686204 426.709856,9.5541429 C389.677085,-11.8291748 337.36955,3.69129898 284.479928,46.0162134 C231.590306,3.69129898 179.282771,-11.8291748 142.25,9.5541429 C109.151333,28.6686204 94.3382249,73.0415145 100.560533,134.521063 C101.102476,139.922107 101.845139,145.443621 102.708233,151.02537 C97.4493791,153.033193 92.2908847,155.161486 87.3331099,157.39017 C31.0111824,182.708821 0,217.765415 0,255.99437 C0,298.781084 39.6220545,336.307301 102.708233,361.003527 C101.845139,366.565197 101.102476,372.066633 100.560533,377.467678 C94.3382249,438.947226 109.151333,483.32012 142.25,502.434597 C153.629683,508.887578 166.52439,512.186771 179.603923,511.991836 C210.956328,511.991836 247.567589,495.487529 284.479928,465.972527 C321.372196,495.487529 358.003528,511.991836 389.396077,511.991836 C402.475265,512.183856 415.36922,508.884856 426.75,502.434597 C459.848667,483.32012 474.661775,438.947226 468.439467,377.467678 C467.897524,372.066633 467.134789,366.565197 466.291767,361.003527 C529.377946,336.347457 569,298.761006 569,255.99437 M389.155214,27.1025182 C397.565154,26.899606 405.877839,28.9368502 413.241569,33.0055186 C436.223966,46.2772304 446.540955,82.2775015 441.522965,131.770345 C441.181741,135.143488 440.780302,138.556788 440.298575,141.990165 C414.066922,134.08804 387.205771,128.452154 360.010724,125.144528 C343.525021,103.224055 325.192524,82.7564475 305.214266,63.9661533 C336.586743,39.7116483 366.032313,27.1025182 389.135142,27.1025182 M378.356498,310.205598 C368.204912,327.830733 357.150626,344.919965 345.237759,361.405091 C325.045049,363.479997 304.758818,364.51205 284.459856,364.497299 C264.167589,364.51136 243.888075,363.479308 223.702025,361.405091 C211.820914,344.919381 200.80007,327.83006 190.683646,310.205598 C180.532593,292.629285 171.306974,274.534187 163.044553,255.99437 C171.306974,237.454554 180.532593,219.359455 190.683646,201.783142 C200.784121,184.229367 211.770999,167.201087 223.601665,150.764353 C243.824636,148.63809 264.145559,147.579168 284.479928,147.591877 C304.772146,147.579725 325.051559,148.611772 345.237759,150.68404 C357.109048,167.14607 368.136094,184.201112 378.27621,201.783142 C388.419418,219.363718 397.644825,237.458403 405.915303,255.99437 C397.644825,274.530337 388.419418,292.625022 378.27621,310.205598 M419.724813,290.127366 C426.09516,307.503536 431.324985,325.277083 435.380944,343.334682 C417.779633,348.823635 399.836793,353.149774 381.668372,356.285142 C388.573127,345.871232 395.263781,335.035679 401.740334,323.778483 C408.143291,312.655143 414.144807,301.431411 419.805101,290.207679 M246.363271,390.377981 C258.848032,391.140954 271.593728,391.582675 284.5,391.582675 C297.406272,391.582675 310.232256,391.140954 322.737089,390.377981 C310.880643,404.583418 298.10766,417.997563 284.5,430.534446 C270.921643,417.999548 258.18192,404.585125 246.363271,390.377981 Z M187.311556,356.244986 C169.137286,353.123646 151.187726,348.810918 133.578912,343.334682 C137.618549,325.305649 142.828222,307.559058 149.174827,290.207679 C154.754833,301.431411 160.736278,312.655143 167.239594,323.778483 C173.74291,334.901824 180.467017,345.864539 187.311556,356.285142 M149.174827,221.760984 C142.850954,204.473938 137.654787,186.794745 133.619056,168.834762 C151.18418,163.352378 169.085653,159.013101 187.211197,155.844146 C180.346585,166.224592 173.622478,176.986525 167.139234,188.210257 C160.65599,199.433989 154.734761,210.517173 149.074467,221.760984 M322.616657,121.590681 C310.131896,120.827708 297.3862,120.385987 284.379568,120.385987 C271.479987,120.385987 258.767744,120.787552 246.242839,121.590681 C258.061488,107.383537 270.801211,93.9691137 284.379568,81.4342157 C297.99241,93.9658277 310.765727,107.380324 322.616657,121.590681 Z M401.70019,188.210257 C395.196875,176.939676 388.472767,166.09743 381.527868,155.68352 C399.744224,158.819049 417.734224,163.151949 435.380944,168.654058 C431.331963,186.680673 426.122466,204.426664 419.785029,221.781062 C414.205023,210.55733 408.203506,199.333598 401.720262,188.230335 M127.517179,131.790423 C122.438973,82.3176579 132.816178,46.2973086 155.778503,33.0255968 C163.144699,28.9632474 171.455651,26.9264282 179.864858,27.1225964 C202.967687,27.1225964 232.413257,39.7317265 263.785734,63.9862316 C243.794133,82.7898734 225.448298,103.270812 208.949132,125.204763 C181.761691,128.528025 154.90355,134.14313 128.661281,141.990165 C128.199626,138.556788 127.778115,135.163566 127.456963,131.790423 M98.4529773,182.106474 C101.54406,180.767925 104.695358,179.429376 107.906872,178.090828 C114.220532,204.735668 122.781793,230.7969 133.498624,255.99437 C122.761529,281.241316 114.193296,307.357063 107.8868,334.058539 C56.7434387,313.076786 27.0971497,284.003505 27.0971497,255.99437 C27.0971497,229.450947 53.1907013,202.526037 98.4529773,182.106474 Z M155.778503,478.963143 C132.816178,465.691432 122.438973,429.671082 127.517179,380.198317 C127.838331,376.825174 128.259842,373.431953 128.721497,369.978497 C154.953686,377.878517 181.814655,383.514365 209.009348,386.824134 C225.500295,408.752719 243.832321,429.233234 263.805806,448.042665 C220.069,481.834331 180.105722,492.97775 155.838719,478.963143 M441.502893,380.198317 C446.520883,429.691161 436.203894,465.691432 413.221497,478.963143 C388.974566,493.017906 348.991216,481.834331 305.274481,448.042665 C325.241364,429.232737 343.566681,408.752215 360.050868,386.824134 C387.245915,383.516508 414.107066,377.880622 440.338719,369.978497 C440.820446,373.431953 441.221885,376.825174 441.563109,380.198317 M461.193488,334.018382 C454.869166,307.332523 446.294494,281.231049 435.561592,255.99437 C446.289797,230.744081 454.857778,204.629101 461.173416,177.930202 C512.216417,198.911955 541.942994,227.985236 541.942994,255.99437 C541.942994,284.003505 512.296705,313.076786 461.153344,334.058539" id="Shape"></path>
        </g>
      </g>
    </g>
  </symbol>

    <symbol id="pawn"  viewBox="0 0 16 16" fill="none">
        <path d="M11 3C11 3.76835 10.7111 4.46924 10.2361 5H12V7H10.5714L12 12L14 14V16H2V14L4 12L5.42857 7H4V5H5.76389C5.28885 4.46924 5 3.76835 5 3C5 1.34315 6.34315 0 8 0C9.65685 0 11 1.34315 11 3Z" fill="currentColor"/>
    </symbol>
  
    <symbol id="rook" viewBox="0 0 512 512" fill="none">
        <path fill="currentColor" d="M406 484.7H106v-60h300v60zm-56.67-330.83h-50.05V91.3h-82.39v62.57h-54.22V91.3h-54.23v113.67h295.12V91.3h-54.23v62.57zm23.35 67.23H139.32v187.6h233.36V221.1z"/>
    </symbol>

    <symbol id="bishop" viewBox="0 0 297.08 297.08" fill="none">
    <path
    d="M206.873,255.08h-3.41c2.214-3.337,8.32-14.536-0.712-25.6
    c-8.9-10.905-25.137-39.546-24.448-64.4h3.57
    c4.418,0,7.667-3.582,7.667-8v-1c0-4.418-3.249-8-7.667-8h-4.333v-4.285
    c13-8.971,20.511-23.502,20.511-39.914
    c0-10.332-7.011-26.11-15.819-41.721
    l-18.553,18.595c-3.111,3.111-8.182,3.111-11.294,0.001l-0.921-0.933
    c-3.111-3.11-3.106-8.202,0.005-11.313l21.676-21.674
    c-4.444-7.069-8.869-13.678-12.703-19.224
    c2.881-2.93,4.663-6.944,4.663-11.379
    C165.106,7.268,157.841,0,148.874,0
    c-8.967,0-16.234,7.268-16.234,16.233
    c0,4.434,1.781,8.448,4.662,11.379
    c-14.585,21.101-37.94,57.587-37.94,76.269
    c0,16.853,8.178,31.724,21.178,40.625v3.574h-4.667
    c-4.418,0-8.333,3.582-8.333,8v1c0,4.418,3.915,8,8.333,8h3.571
    c0.689,24.855-15.547,53.495-24.448,64.4
    c-9.031,11.064-2.926,22.263-0.712,25.6h-3.411
    c-4.418,0-8.333,3.582-8.333,8v9
    c0,4.078,3,7.438,7,7.931v17.069h118v-17.069
    c4-0.493,7-3.853,7-7.931v-9
    C214.54,258.662,211.291,255.08,206.873,255.08z"
    fill="currentColor"
    />
    </symbol>

    <symbol id="queen" viewBox="0 0 493.04 493.04" fill="none">
    <path
    d="M338.968,466.068v-30.572c0-18.72-12.188-34.616-29.056-40.204
    c-3.196-7.848-9.736-13.744-17.552-16.328l-7.436-178.672h0.168
    c6.376,0,11.556-5.188,11.556-11.564c0-6.368-5.18-11.556-11.556-11.556h-1.128
    l-2.248-53.952c5.512-1.176,10.204-5.232,11.308-10.22l14.688-65.956
    c0.66-2.952,0.004-5.916-1.84-8.22c-2.092-2.608-5.484-4.168-9.304-4.168h-30.78v-15.4
    C265.788,8.636,257.204,0,246.472,0c-10.62,0-19.2,8.636-19.2,19.256v15.408H196.68
    c-3.824,0-7.212,1.556-9.304,4.164c-1.844,2.3-2.5,5.232-1.836,8.184l14.68,65.964
    c1.112,4.988,5.804,9.068,11.312,10.244l-2.248,53.96h-1.124
    c-6.372,0-11.556,5.188-11.556,11.556c0,6.376,5.184,11.564,11.556,11.564h0.364
    l-7.664,178.672c-7.8,2.584-14.352,8.476-17.556,16.296
    c-16.928,5.552-29.228,21.468-29.228,40.236v30.572
    c-7.704,0-11.556,5.188-11.556,11.556v3.536
    c0,6.368,5.232,11.872,11.604,11.872h184.892
    c6.368,0,11.504-5.504,11.504-11.872v-3.536
    C350.524,471.256,346.672,466.068,338.968,466.068z"
    fill="currentColor"
    />
    </symbol>

    <symbol id="king" viewBox="0 0 41.325 41.325" fill="none">
    <path
    d="M27.615,40.452c0.106,0.283,0.143,0.873,0.143,0.873H13.571
    c0,0,0.002-0.595,0.127-0.896c0.125-0.299,0.498-0.576,0.498-0.576h0.05
    c0.02-0.063,0.039-0.133,0.056-0.203H14.28c-0.591-0.772-0.947-1.92-0.862-3.104
    s0.949-2.379,1.532-3.299l0.023-0.09c-0.021-0.068,0.006-0.052-0.005-0.123
    c-0.169-0.043-0.484-0.32-0.394-0.66c0.113-0.461,0.526-0.562,0.672-0.562h0.073
    l0.026-0.092l-0.005-0.093c1.442-3.293,2.606-5.104,2.997-11.321
    c-0.042-0.074-0.084-0.148-0.122-0.222c-0.752,0-1.372,0-1.401-0.002
    c-0.098-0.011-0.801-0.418-0.739-1.068c0.072-0.812,0.799-1.105,0.893-1.105
    c0.022,0,0.276,0,0.64,0l0.209-3.7c0,0-2.284-3.409-2.638-3.979
    c-0.254-0.413-0.486-0.945-0.486-1.472c0-1.196,0.951-2.17,2.123-2.17
    c0.339,0,0.866,0.001,1.205,0.001c0,0,0-0.386,0-0.531
    c0-0.345,0.272-0.622,0.609-0.622c0.658,0,3.525,0,4.07,0
    c0.335,0,0.606,0.277,0.606,0.622c0,0.146,0,0.531,0,0.531
    c0.34,0,0.865-0.001,1.204-0.001c1.173,0,2.123,0.973,2.123,2.17
    c0,0.525-0.229,1.059-0.486,1.472c-0.354,0.57-2.608,3.889-2.608,3.889
    l0.181,3.792c0.377,0,0.634,0,0.655,0c0.094,0,0.781,0.349,0.854,1.163
    c0.062,0.648-0.601,1.001-0.698,1.012c-0.027,0.002-0.645,0.002-1.406,0.002
    c-0.011,0.155-0.047,0.325-0.114,0.511c0.415,5.979,1.771,7.791,3.188,11.032
    l0.003,0.064l-0.002,0.116c0.066,0,0.108,0,0.12,0c0.146,0,0.56,0.103,0.672,0.562
    c0.098,0.369-0.277,0.664-0.433,0.67l-0.078,0.076c0.008,0.072,0.062,0.08,0.058,0.17
    c0.663,1.006,1.297,2.301,1.372,3.486c0.066,1.104-0.239,1.998-0.773,2.746
    c0.02,0.129,0.025,0.248,0.021,0.354C27.24,39.95,27.522,40.212,27.615,40.452z
    M18.824,3.601c0.546-0.559,1.191-0.803,1.445-0.546
    c0.25,0.26,0.012,0.921-0.534,1.477c-0.084,0.086-0.173,0.165-0.259,0.233
    c0.378,0.237,0.825,0.372,1.298,0.372c0.47-0.001,0.909-0.133,1.285-0.358
    c-0.095-0.074-0.188-0.155-0.275-0.248c-0.546-0.559-0.785-1.217-0.534-1.476
    c0.251-0.258,0.898-0.013,1.444,0.546c0.09,0.091,0.17,0.185,0.242,0.28
    c0.224-0.385,0.352-0.833,0.352-1.312c0-0.484-0.131-0.938-0.361-1.325
    c-0.062,0.081-0.135,0.165-0.214,0.243c-0.546,0.56-1.192,0.803-1.443,0.545
    c-0.251-0.256-0.014-0.917,0.532-1.476c0.075-0.076,0.151-0.146,0.229-0.21
    C21.66,0.125,21.231,0,20.773,0c-0.457,0-0.886,0.127-1.256,0.346
    c0.089,0.069,0.178,0.15,0.261,0.236c0.545,0.56,0.785,1.22,0.533,1.477
    c-0.251,0.256-0.897,0.013-1.443-0.544c-0.089-0.093-0.17-0.186-0.242-0.279
    c-0.23,0.388-0.364,0.845-0.364,1.335c0,0.466,0.123,0.907,0.336,1.285
    C18.668,3.77,18.741,3.683,18.824,3.601z"
    fill="currentColor"
    />
    </symbol>


    <symbol id="knight" viewBox="0 0 298 298" fill="none">
    <path
    d="M210.952,116c14.912,0,27.037-12.088,27.037-27s-10.945-25.013-26.964-30.666
    c-11.333-4-18.018-10.823-23.009-19.412
    C183.025,30.333,172.025,17,157.525,17c-5.832,0-19.798,0-19.798,0V0
    c-107,40.03-72.369,184-72.369,184h21.369v14h-6.369
    c-4.418,0-8.631,3.582-8.631,8v1c0,3.289,2.302,6.111,5.14,7.341
    c-8.77,15.05-1.419,29.775,0.761,33.659h-5.271
    c-4.418,0-8.631,3.582-8.631,8v18c0,4.418,4,8,8,8v16h132v-16.069
    c4-0.493,7-3.853,7-7.931v-18c0-4.418-2.951-8-7.369-8h-4.27
    c2.181-3.884,8.902-18.609,0.13-33.659c2.838-1.23,4.508-4.052,4.508-7.341v-1
    c0-4.418-2.951-8-7.369-8h-7.631v-14h24.132
    c-16.501-54-66.334-83-66.334-83h40.182
    C191.146,109.889,200.351,116,210.952,116z"
    fill="currentColor"
    />
    </symbol>




</svg>
